<svg viewBox="0 0 37 38" fill="none" xmlns="http://www.w3.org/2000/svg">
<path d="M18 1C8.07 1 0 9.074 0 19C0 28.926 8.07 37 18 37C27.93 37 36 28.926 36 19C36 9.074 27.93 1 18 1ZM26.5601 28.311C26.4201 28.45 26.2601 28.561 26.0701 28.637C25.8901 28.713 25.7 28.752 25.5 28.752C25.3 28.752 25.1099 28.713 24.9299 28.637C24.7399 28.561 24.5799 28.45 24.4399 28.311L16.9399 20.81C16.7999 20.671 16.6901 20.506 16.6101 20.324C16.5401 20.142 16.5 19.947 16.5 19.75V10C16.5 9.602 16.6599 9.22099 16.9399 8.939C17.2199 8.658 17.6 8.5 18 8.5C18.4 8.5 18.7801 8.658 19.0601 8.939C19.3401 9.22099 19.5 9.602 19.5 10V19.129L26.5601 26.189C26.7001 26.329 26.8099 26.494 26.8899 26.676C26.9599 26.858 27 27.053 27 27.25C27 27.447 26.9599 27.642 26.8899 27.824C26.8099 28.006 26.7001 28.171 26.5601 28.311Z" fill="#3A6D90"/>
</svg>
