<svg width="36" height="38" viewBox="0 0 37 38" fill="none" xmlns="http://www.w3.org/2000/svg">
<path d="M27.95 26.046H23.79V23.946C22.03 24.768 20.07 25.229 18 25.229C15.93 25.229 13.97 24.768 12.21 23.946V26.046H8.05005C7.83005 26.046 7.61005 26.112 7.43005 26.235C7.25005 26.359 7.10002 26.534 7.02002 26.739C6.94002 26.944 6.91996 27.169 6.95996 27.386C7.00996 27.603 7.11002 27.801 7.27002 27.956L17.22 37.683C17.44 37.894 17.72 38 18 38C18.28 38 18.56 37.894 18.78 37.683L28.73 27.956C28.89 27.801 29 27.603 29.04 27.386C29.09 27.169 29.06 26.944 28.98 26.739C28.9 26.534 28.7499 26.359 28.5699 26.235C28.3899 26.112 28.17 26.046 27.95 26.046ZM18 23.001C24.34 23.001 29.5 17.842 29.5 11.501C29.5 5.15901 24.34 0 18 0C11.66 0 6.5 5.15901 6.5 11.501C6.5 17.842 11.66 23.001 18 23.001Z" fill="#3A6D90"/>
<path d="M14 14.271C14.86 15.239 16.06 15.848 17.35 15.975C18.65 16.102 19.95 15.738 20.98 14.956C22.02 14.174 22.7101 13.032 22.9301 11.762C23.1401 10.491 22.87 9.187 22.15 8.112M21.61 7.44101C20.95 6.74301 20.1 6.243 19.17 6" stroke="white" stroke-width="1.5"/>
</svg>
