<svg viewBox="0 0 26 28" fill="none" xmlns="http://www.w3.org/2000/svg">
<path d="M21.7543 3.95927C19.2647 1.40584 15.9551 0 12.4347 0C12.0081 0 11.6626 0.354311 11.6626 0.791858V6.9175H16.5531C16.9797 6.9175 17.3258 7.27182 17.3258 7.70936C17.3258 8.14691 16.9797 8.50122 16.5531 8.50122H16.2957V8.59371C16.2964 9.45173 16.0987 10.2977 15.7186 11.0618C15.3385 11.8266 14.7863 12.4868 14.1085 12.9898C14.7863 13.4921 15.3385 14.153 15.7186 14.9172C16.0987 15.6813 16.2964 16.5272 16.2957 17.3852V17.4777H16.5531C16.9797 17.4777 17.3258 17.8327 17.3258 18.2702C17.3258 18.7078 16.9797 19.0621 16.5531 19.0621H8.31568C7.88907 19.0621 7.54359 18.7078 7.54359 18.2702C7.54359 17.8327 7.88907 17.4777 8.31568 17.4777H8.57301V17.3852C8.57232 16.6688 8.71038 15.9594 8.97883 15.2985C9.24728 14.6368 9.64128 14.0364 10.1373 13.5326L0.508348 17.1269C0.107403 17.2763 -0.0993396 17.731 0.0470261 18.1422C0.963373 20.7234 2.60463 22.9332 4.79526 24.5339C7.03445 26.1703 9.67597 27.0354 12.4347 27.0354C15.9551 27.0354 19.2647 25.6296 21.7543 23.0762C24.246 20.5227 25.6125 17.1284 25.6125 13.5177C25.6125 9.90706 24.246 6.51269 21.7543 3.95927Z" fill="#3A6D90"/>
<path d="M9.73975 11.9935C9.00168 11.053 8.57298 9.86269 8.57298 8.59274V8.50024H8.31565C7.88904 8.50024 7.54356 8.14524 7.54356 7.70769C7.54356 7.27085 7.88904 6.91583 8.31565 6.91583H10.1178V2.41229C8.04509 2.86264 6.14095 3.91632 4.60793 5.48864C2.51719 7.63297 1.36568 10.4838 1.36568 13.516C1.36568 14.0389 1.40247 14.5605 1.47461 15.0791L9.73975 11.9935ZM14.7515 8.50024H10.1178V8.59274C10.1171 9.35328 10.337 10.0975 10.7497 10.73C11.1618 11.3617 11.7486 11.8541 12.4347 12.1436C13.1207 11.8541 13.7069 11.3617 14.1196 10.73C14.5324 10.0975 14.7522 9.35328 14.7515 8.59274V8.50024ZM10.1178 17.3842V17.4767H14.7515V17.3842C14.7522 16.623 14.5324 15.8795 14.1196 15.247C13.7069 14.6145 13.1207 14.1222 12.4347 13.8326C11.7486 14.1222 11.1618 14.6145 10.7497 15.247C10.337 15.8795 10.1171 16.623 10.1178 17.3842Z" fill="#3A6D90"/>
</svg>
