<svg viewBox="0 0 22 22" fill="none" xmlns="http://www.w3.org/2000/svg">
<path fill-rule="evenodd" clip-rule="evenodd" d="M17.7317 2.02765V0.965551C17.7317 0.709358 17.628 0.464105 17.4432 0.282582C17.2585 0.101702 17.0079 0 16.7466 0C16.4854 0 16.2348 0.101702 16.05 0.282582C15.8653 0.464105 15.7615 0.709358 15.7615 0.965551V1.9311H11.8212V0.965551C11.8212 0.709358 11.7174 0.464105 11.5327 0.282582C11.3479 0.101702 11.0973 0 10.8361 0C10.5748 0 10.3242 0.101702 10.1395 0.282582C9.95472 0.464105 9.85096 0.709358 9.85096 0.965551V1.9311H5.91058V0.965551C5.91058 0.709358 5.80681 0.464105 5.62207 0.282582C5.43734 0.101702 5.18673 0 4.92548 0C4.66423 0 4.41362 0.101702 4.22889 0.282582C4.04415 0.464105 3.94038 0.709358 3.94038 0.965551V2.02765C2.82788 2.25037 1.82795 2.84259 1.10988 3.70515C0.961324 3.88345 0.82669 4.07076 0.70664 4.26644H20.9655C20.8454 4.07076 20.7108 3.88345 20.5622 3.70515C19.8442 2.84259 18.8442 2.25037 17.7317 2.02765ZM1.3394e-07 6.75885C-0.000131212 6.20656 0.0963413 5.66263 0.281342 5.1496H21.3908C21.5758 5.66263 21.6722 6.20656 21.6721 6.75885V16.4144C21.6721 17.0484 21.5447 17.676 21.2972 18.2618C21.0497 18.8475 20.6868 19.3799 20.2295 19.8279C19.7721 20.2766 19.2291 20.6319 18.6315 20.8746C18.034 21.1172 17.3934 21.2421 16.7466 21.2421H4.92548C3.61918 21.2421 2.36633 20.7336 1.44264 19.8279C0.985294 19.3799 0.622449 18.8475 0.374928 18.2618C0.127406 17.676 1.3394e-07 17.0484 1.3394e-07 16.4144V6.75885Z" fill="#3A6D90"/>
<path d="M8.20947 14.014C8.7738 14.6371 9.56109 15.0291 10.4122 15.1109C11.2633 15.1926 12.1147 14.9583 12.7942 14.4549C13.4738 13.9515 13.9309 13.2164 14.0731 12.3989C14.2153 11.5808 14.0319 10.7414 13.5601 10.0494M13.2082 9.61752C12.7738 9.16822 12.2172 8.84636 11.6026 8.68994" stroke="white" stroke-width="1.06719"/>
</svg>
