<svg width="26" height="26" viewBox="0 0 26 26" fill="none" xmlns="http://www.w3.org/2000/svg">
<g clip-path="url(#clip0_0_4054)">
<path d="M12.5656 0.00705096C6.00569 0.222635 0.485806 5.55476 0.0320985 12.136C-0.447609 19.0987 4.50677 24.9822 11.0576 25.9713V16.5287H8.95934C8.01552 16.5287 7.25111 15.7604 7.25111 14.8118C7.25111 13.8633 8.01552 13.095 8.95934 13.095H11.0563V10.8098C11.0563 7.02596 12.8906 5.3653 16.0197 5.3653C16.4839 5.3653 16.8804 5.37576 17.2171 5.39274C18.0439 5.43325 18.6848 6.12573 18.6848 6.95801C18.6848 7.82427 17.9867 8.5259 17.1248 8.5259H16.5502C15.2215 8.5259 14.7574 9.79197 14.7574 11.2187V13.0963H17.1885C17.9568 13.0963 18.5444 13.7849 18.4274 14.5479L18.287 15.4638C18.1921 16.0779 17.6669 16.5313 17.0481 16.5313H14.7574V26C21.1054 25.1337 26 19.6801 26 13.0662C26 5.70501 19.9432 -0.233358 12.5656 0.00705096Z" fill="#3A6D90"/>
</g>
<defs>
<clipPath id="clip0_0_4054">
<rect width="26" height="26" fill="white"/>
</clipPath>
</defs>
</svg>
