<svg viewBox="0 0 118 30" fill="none" xmlns="http://www.w3.org/2000/svg">
<g clip-path="url(#clip0_510_10759)">
<path d="M59.8749 12.3C59.9464 12.3 60.0165 12.3078 60.0856 12.3196V3.32026C60.0856 2.40814 60.8251 1.66619 61.7339 1.66619H83.5867C84.4954 1.66619 85.235 2.40825 85.235 3.32026V12.3196C85.9304 12.3263 86.5176 12.3187 86.9878 12.3196V3.32026C86.9878 1.44982 85.462 -0.0721436 83.5867 -0.0721436H61.7339C59.8585 -0.0721436 58.333 1.44971 58.333 3.32026V12.3167C58.7903 12.3159 59.3065 12.3104 59.8749 12.3Z" fill="currentColor"/>
<path d="M86.7353 23.3896C86.7295 23.3896 86.724 23.3896 86.7183 23.3894C85.9611 23.3786 85.4684 23.3731 85.235 23.3727V26.6736C85.235 27.5856 84.4954 28.3276 83.5866 28.3276H61.7339C60.8251 28.3276 60.0856 27.5856 60.0856 26.6736V23.3293C59.9627 23.3702 59.833 23.3918 59.7008 23.3895C59.249 23.3803 58.7905 23.376 58.333 23.374V26.6736C58.333 28.544 59.8585 30.066 61.7339 30.066H83.5866C85.462 30.066 86.9878 28.544 86.9878 26.6736V23.3609C86.9063 23.3791 86.822 23.3896 86.7353 23.3896Z" fill="currentColor"/>
<path d="M74.6412 4.00414C74.6412 4.39673 74.1742 4.71507 73.5982 4.71507H62.1283C61.5529 4.71507 61.0859 4.39673 61.0859 4.00414C61.0859 3.61155 61.553 3.29321 62.1283 3.29321H73.5982C74.1742 3.29321 74.6412 3.61155 74.6412 4.00414Z" fill="currentColor"/>
<path d="M80.7601 4.00179C80.7601 4.80138 80.1067 5.44961 79.3 5.44961C78.4938 5.44961 77.8403 4.80127 77.8403 4.00179C77.8403 3.20231 78.494 2.55408 79.3 2.55408C80.1067 2.55419 80.7601 3.20231 80.7601 4.00179Z" fill="currentColor"/>
<path d="M84.0675 4.00179C84.0675 4.80138 83.4141 5.44961 82.6076 5.44961C81.8012 5.44961 81.1479 4.80127 81.1479 4.00179C81.1479 3.20231 81.8014 2.55408 82.6076 2.55408C83.4142 2.55419 84.0675 3.20231 84.0675 4.00179Z" fill="currentColor"/>
<path d="M84.6289 22.2594L84.8726 18.0904L85.0119 14.8294L85.0293 13.4281C85.6691 13.4396 86.2332 13.4453 86.7218 13.4453C87.2742 13.4453 87.8122 13.4396 88.3357 13.4281L88.2752 14.5785C88.4554 14.3479 88.608 14.1706 88.7331 14.0465C88.858 13.9226 89.0108 13.8043 89.1909 13.6919C89.371 13.5794 89.5573 13.4901 89.749 13.4237C89.9409 13.3575 90.156 13.3041 90.3942 13.2636C90.6326 13.2234 90.8827 13.2031 91.1444 13.2031C91.4409 13.2031 91.7142 13.2277 91.9641 13.2766C92.214 13.3257 92.4292 13.3877 92.6096 13.4626C92.7897 13.5376 92.9466 13.6241 93.0804 13.7221C93.214 13.8202 93.3318 13.9312 93.4337 14.0551C93.5353 14.1792 93.6531 14.3593 93.7869 14.5957C94.0427 14.2268 94.313 13.9471 94.5981 13.7568C94.8829 13.5665 95.2071 13.4268 95.5706 13.3373C95.9339 13.2479 96.3076 13.2032 96.6913 13.2032C97.1973 13.2032 97.6739 13.2754 98.1216 13.4195C98.5693 13.5637 98.9372 13.8131 99.2249 14.1677C99.5127 14.5224 99.6567 14.9823 99.6567 15.5473C99.6567 15.8127 99.6374 16.2134 99.5993 16.7496C99.5609 17.286 99.508 18.2071 99.4403 19.5133C99.3727 20.8194 99.336 21.7348 99.3301 22.2595C98.7957 22.2481 98.2787 22.2424 97.7795 22.2424C97.1694 22.2424 96.5306 22.2482 95.8627 22.2595C95.9213 21.5274 95.9814 20.6089 96.043 19.5046C96.1046 18.4005 96.1354 17.635 96.1354 17.2081C96.1354 16.8342 96.0915 16.5552 96.0041 16.3711C95.9166 16.1871 95.8045 16.0616 95.6675 15.9943C95.5306 15.9271 95.3805 15.8934 95.2173 15.8934C95.0425 15.8934 94.891 15.9254 94.7627 15.9893C94.6228 16.0592 94.5006 16.1666 94.3955 16.3121C94.2556 16.5037 94.1419 16.745 94.0546 17.0356C93.9845 17.2623 93.9291 17.6082 93.8884 18.0732C93.8477 18.546 93.8157 19.1689 93.7924 19.9414L93.7226 22.2595C93.1009 22.2481 92.5405 22.2424 92.0408 22.2424C91.5296 22.2424 90.9283 22.2482 90.2371 22.2595C90.2901 21.7465 90.3519 20.8843 90.4226 19.6732C90.4933 18.4623 90.5287 17.6522 90.5287 17.2427C90.5287 16.8967 90.4938 16.6372 90.4241 16.4643C90.3543 16.2913 90.2568 16.1528 90.1318 16.049C90.0067 15.9453 89.8396 15.8934 89.6303 15.8934C89.4036 15.8934 89.2059 15.9597 89.0373 16.0924C88.8686 16.225 88.7247 16.4155 88.6055 16.6633C88.4862 16.9112 88.4018 17.2528 88.3526 17.6882C88.3031 18.1236 88.258 18.7882 88.2173 19.6819C88.1765 20.5758 88.1503 21.435 88.1387 22.2595C87.4344 22.2481 86.864 22.2424 86.4274 22.2424C85.9443 22.2423 85.3448 22.2481 84.6289 22.2594Z" fill="currentColor"/>
<path d="M101.894 15.9451C102.004 15.3743 102.074 14.9806 102.103 14.7645C102.132 14.5482 102.179 14.2095 102.243 13.7481C103.917 13.3847 105.356 13.2031 106.56 13.2031C107.247 13.2031 107.875 13.2796 108.445 13.4323C109.014 13.5852 109.459 13.8317 109.779 14.1718C110.099 14.5121 110.259 14.9993 110.259 15.6336C110.259 15.9566 110.215 16.6832 110.128 17.8132C110.042 18.9435 109.975 20.4255 109.928 22.2592C109.358 22.2478 108.791 22.242 108.227 22.242C107.68 22.242 107.098 22.2479 106.481 22.2592C106.561 21.6249 106.649 20.3159 106.745 18.3323C106.525 18.436 106.352 18.5111 106.227 18.5573C106.103 18.6035 105.884 18.6727 105.57 18.7648C105.257 18.8571 105.012 18.935 104.835 18.9984C104.658 19.0619 104.505 19.1426 104.374 19.2405C104.243 19.3387 104.151 19.4395 104.096 19.5433C104.041 19.647 104.013 19.7625 104.013 19.8894C104.013 20.0855 104.092 20.2527 104.249 20.3911C104.406 20.5295 104.655 20.5986 104.999 20.5986C105.121 20.5986 105.252 20.5887 105.391 20.5684C105.531 20.5484 105.723 20.4979 105.967 20.4171C105.798 20.8612 105.597 21.5099 105.365 22.3632C104.865 22.4439 104.391 22.4844 103.943 22.4844C103.222 22.4844 102.622 22.3849 102.142 22.1859C101.663 21.987 101.293 21.6656 101.035 21.2215C100.776 20.7774 100.646 20.3335 100.646 19.8895C100.646 19.6184 100.694 19.3532 100.79 19.0937C100.886 18.8342 101.036 18.5805 101.239 18.3325C101.443 18.0846 101.681 17.8727 101.954 17.6968C102.227 17.521 102.601 17.3552 103.075 17.1995C103.548 17.0438 104.148 16.8968 104.875 16.7583C105.177 16.7008 105.455 16.6388 105.708 16.5724C105.96 16.5062 106.14 16.4485 106.248 16.3995C106.356 16.3506 106.443 16.2927 106.51 16.2265C106.576 16.1601 106.624 16.0911 106.653 16.0188C106.683 15.9469 106.697 15.8704 106.697 15.7896C106.697 15.5705 106.604 15.4019 106.418 15.2836C106.232 15.1654 105.959 15.1063 105.599 15.1063C104.599 15.1061 103.364 15.3859 101.894 15.9451Z" fill="currentColor"/>
<path d="M118.2 19.7156C118.095 20.1998 118.005 20.6727 117.929 21.1341L117.737 22.1894C117.162 22.3161 116.713 22.397 116.39 22.4315C116.067 22.4663 115.754 22.4835 115.452 22.4835C114.958 22.4835 114.519 22.4416 114.135 22.358C113.752 22.2744 113.432 22.1218 113.176 21.8996C112.92 21.6776 112.745 21.4226 112.653 21.1341C112.559 20.846 112.513 20.5403 112.513 20.2173C112.513 20.1598 112.516 20.0573 112.522 19.9101C112.527 19.7631 112.548 19.4359 112.582 18.9285L112.773 15.9357H111.414C111.443 15.5378 111.469 15.0131 111.492 14.3614L111.519 13.5569H112.964C112.998 13.2917 113.042 12.7122 113.094 11.8184L114.587 11.5157C114.86 11.4637 115.442 11.3312 116.333 11.1178C116.292 11.8733 116.263 12.6864 116.246 13.557H118.235C118.188 14.7565 118.165 15.5495 118.165 15.9358H116.158L116.053 18.0982C116.041 18.4211 116.035 18.6288 116.035 18.721C116.035 18.9978 116.066 19.2284 116.127 19.4129C116.188 19.5976 116.296 19.7301 116.45 19.8107C116.604 19.8916 116.774 19.9319 116.96 19.9319C117.1 19.9319 117.245 19.922 117.397 19.9016C117.548 19.8813 117.815 19.8194 118.2 19.7156Z" fill="currentColor"/>
<path d="M76.2256 13.34L77.3986 12.3251C76.7357 11.6022 75.8962 11.041 74.9487 10.7091L74.0718 12.0559C74.9111 12.2719 75.655 12.7257 76.2256 13.34Z" fill="currentColor"/>
<path d="M78.0089 13.1189L76.8174 14.1493C77.1883 14.7925 77.402 15.5356 77.402 16.3279C77.402 18.7594 75.4072 20.7376 72.9558 20.7376C71.5578 20.7376 70.3102 20.0943 69.4944 19.0911L68.6182 20.4376C69.7119 21.5726 71.2513 22.2821 72.9558 22.2821C76.2662 22.2821 78.9595 19.6112 78.9595 16.3279C78.9594 15.1465 78.6096 14.0455 78.0089 13.1189Z" fill="currentColor"/>
<path d="M72.9554 25.7168C67.7341 25.7168 63.4863 21.5041 63.4863 16.3258C63.4863 11.1478 67.7341 6.93506 72.9554 6.93506C78.1766 6.93506 82.4242 11.1478 82.4242 16.3258C82.4242 21.5041 78.1766 25.7168 72.9554 25.7168ZM72.9554 9.26673C69.0304 9.26673 65.8374 12.4335 65.8374 16.3257C65.8374 20.2184 69.0304 23.385 72.9554 23.385C76.8801 23.385 80.0731 20.2184 80.0731 16.3257C80.0731 12.4335 76.8801 9.26673 72.9554 9.26673Z" fill="currentColor"/>
<path d="M0.189941 22.2635C0.335907 20.9027 0.441055 19.7928 0.505387 18.9335C0.627949 17.3649 0.72001 15.8066 0.781347 14.2583C0.842573 12.71 0.873296 11.4428 0.873296 10.4567C1.66335 10.4682 2.36346 10.474 2.97372 10.474C3.38622 10.474 3.97884 10.4683 4.75159 10.4567L4.54141 13.5879L4.27865 18.4838L4.2436 19.6859C5.24406 19.7033 5.89559 19.7118 6.19794 19.7118C7.72781 19.7118 8.88544 19.6918 9.67062 19.6514L9.47873 22.2635C7.94953 22.2521 6.49298 22.2464 5.10919 22.2464C3.23681 22.2464 1.59714 22.2522 0.189941 22.2635Z" fill="currentColor"/>
<path d="M11.2799 15.9511C11.3901 15.3802 11.46 14.9866 11.4893 14.7704C11.5182 14.5542 11.5647 14.2155 11.6288 13.754C13.3033 13.3908 14.7427 13.2091 15.9464 13.2091C16.6327 13.2091 17.2607 13.2854 17.8307 13.4383C18.4006 13.591 18.8456 13.8376 19.1654 14.1779C19.4851 14.5181 19.6453 15.0054 19.6453 15.6396C19.6453 15.9627 19.6016 16.6893 19.5146 17.8194C19.4277 18.9496 19.3609 20.4316 19.3144 22.2653C18.7443 22.2539 18.1773 22.2481 17.613 22.2481C17.066 22.2481 16.4844 22.254 15.8676 22.2653C15.9469 21.6313 16.0351 20.3223 16.1313 18.3384C15.9108 18.4421 15.7384 18.5172 15.6137 18.5634C15.4888 18.6096 15.2698 18.6787 14.9566 18.7709C14.6435 18.8633 14.3983 18.9413 14.2215 19.0046C14.0446 19.068 13.8907 19.1487 13.7603 19.2468C13.6297 19.3449 13.5369 19.4458 13.4818 19.5494C13.4268 19.6532 13.3992 19.7686 13.3992 19.8955C13.3992 20.0916 13.4777 20.2588 13.6346 20.3972C13.7918 20.5355 14.0417 20.6047 14.3848 20.6047C14.507 20.6047 14.6376 20.5948 14.7774 20.5745C14.9168 20.5545 15.1087 20.504 15.3529 20.4232C15.1842 20.8673 14.9836 21.516 14.7512 22.3692C14.251 22.45 13.777 22.4905 13.3295 22.4905C12.6084 22.4905 12.0081 22.391 11.5285 22.192C11.0487 21.9933 10.6795 21.6717 10.4209 21.2276C10.1622 20.7837 10.0327 20.3396 10.0327 19.8956C10.0327 19.6245 10.0804 19.3592 10.1765 19.0998C10.2723 18.8403 10.4221 18.5866 10.6255 18.3386C10.8288 18.0907 11.0672 17.8788 11.3404 17.7029C11.6136 17.5272 11.9872 17.3613 12.4607 17.2056C12.9344 17.0499 13.5345 16.9029 14.2612 16.7643C14.5635 16.7068 14.8409 16.6448 15.0937 16.5785C15.3465 16.5123 15.5267 16.4547 15.6343 16.4056C15.7418 16.3565 15.8291 16.2988 15.8959 16.2327C15.9626 16.1662 16.0105 16.0972 16.0398 16.0249C16.0687 15.9528 16.0833 15.8764 16.0833 15.7956C16.0833 15.5766 15.9904 15.408 15.8045 15.2895C15.6183 15.1716 15.3453 15.1124 14.9848 15.1124C13.9849 15.1121 12.7502 15.3918 11.2799 15.9511Z" fill="currentColor"/>
<path d="M30.8583 22.2626C30.1948 22.2512 29.642 22.2455 29.2 22.2455C28.6531 22.2455 28.1032 22.2513 27.5505 22.2626L27.5408 21.0778C27.3315 21.3373 27.1541 21.5318 27.0087 21.6618C26.8634 21.7916 26.7049 21.9052 26.5336 22.0033C26.362 22.1015 26.1701 22.1865 25.958 22.2587C25.7457 22.3306 25.5015 22.3867 25.2254 22.4271C24.9493 22.4675 24.6688 22.4877 24.384 22.4877C23.9248 22.4877 23.4902 22.4345 23.0805 22.3276C22.6706 22.2211 22.3101 22.0411 21.9991 21.7871C21.6881 21.5333 21.4759 21.2452 21.3625 20.9222C21.2492 20.5992 21.1924 20.2246 21.1924 19.7976C21.1924 19.6939 21.201 19.5325 21.2186 19.3132L21.3581 17.3497C21.3987 16.6289 21.4364 15.8304 21.4712 14.9538C21.4945 14.4174 21.5062 13.9102 21.5062 13.4314C22.2272 13.4429 22.8407 13.4486 23.3466 13.4486C23.8581 13.4486 24.4224 13.4431 25.0388 13.4314L24.7681 16.7268C24.7272 17.2286 24.7055 17.5703 24.7025 17.7519C24.6996 17.9335 24.6982 18.0561 24.6982 18.1194C24.6982 18.7248 24.8221 19.1346 25.0699 19.3477C25.3177 19.5611 25.6135 19.6677 25.9576 19.6677C26.0972 19.6677 26.2372 19.6476 26.3772 19.6073C26.517 19.567 26.6511 19.5093 26.7795 19.4342C26.8901 19.365 26.9922 19.2784 27.0854 19.1749C27.1845 19.0654 27.2719 18.9326 27.3478 18.7768C27.4408 18.5867 27.5111 18.3821 27.5576 18.1628C27.6216 17.8572 27.6713 17.4708 27.7064 17.0038C27.7289 16.6635 27.7603 16.0752 27.8 15.239L27.8681 13.4314C28.6174 13.4429 29.2331 13.4486 29.7153 13.4486C30.2553 13.4486 30.7984 13.4431 31.3444 13.4314C31.211 14.896 31.1069 16.2888 31.0317 17.6092C30.9565 18.9297 30.8987 20.481 30.8583 22.2626Z" fill="currentColor"/>
<path d="M32.561 22.2653C32.7283 20.9565 32.8566 19.5103 32.9459 17.9276C33.0355 16.3445 33.0887 14.8468 33.106 13.4339C33.8045 13.4455 34.4071 13.4511 34.9136 13.4511C35.5015 13.4511 36.0663 13.4456 36.6078 13.4339L36.5209 14.6102C36.7127 14.397 36.8787 14.2283 37.0181 14.1044C37.1575 13.9803 37.3305 13.8592 37.5371 13.741C37.7433 13.6229 37.9629 13.5262 38.1954 13.4511C38.4278 13.3763 38.6824 13.3172 38.9586 13.274C39.2348 13.2307 39.524 13.2091 39.8265 13.2091C40.2451 13.2091 40.6536 13.2538 41.0516 13.3432C41.4499 13.4327 41.7828 13.5593 42.0503 13.7238C42.3178 13.8881 42.5416 14.0928 42.7218 14.3379C42.9021 14.5831 43.0212 14.8469 43.0794 15.1294C43.1375 15.4121 43.1667 15.7032 43.1667 16.003C43.1667 16.2222 43.1432 16.6951 43.096 17.4216L42.9459 20.5528C42.9165 21.1698 42.9018 21.7407 42.9018 22.2653C42.315 22.2539 41.7661 22.2481 41.2548 22.2481C40.5634 22.2481 39.9331 22.254 39.3639 22.2653C39.4167 21.7406 39.4724 20.9608 39.531 19.9256C39.5897 18.8907 39.619 18.1626 39.619 17.7414C39.619 17.0899 39.4923 16.6358 39.2392 16.3792C38.9861 16.1227 38.6671 15.9942 38.2832 15.9942C37.9456 15.9942 37.6269 16.1038 37.3273 16.3229C37.0274 16.5421 36.7962 16.8607 36.6332 17.2787C36.4703 17.697 36.3553 18.3846 36.2882 19.3416C36.2211 20.2987 36.1759 21.2735 36.1526 22.2652C35.5714 22.2538 35.0046 22.248 34.4527 22.248C33.8715 22.2481 33.241 22.254 32.561 22.2653Z" fill="currentColor"/>
<path d="M54.4329 22.2635C53.8104 22.2521 53.2928 22.2464 52.8797 22.2464C52.4143 22.2464 51.8502 22.2522 51.1872 22.2635L51.237 21.1653C51.0104 21.3844 50.8126 21.5618 50.644 21.697C50.4754 21.8325 50.2589 21.9639 49.9947 22.0906C49.7301 22.2175 49.4452 22.3155 49.1402 22.3847C48.8351 22.4539 48.5197 22.4885 48.1942 22.4885C47.6362 22.4885 47.1144 22.3875 46.6292 22.1857C46.1438 21.984 45.7297 21.697 45.3867 21.3251C45.0438 20.953 44.7881 20.5121 44.6195 20.0017C44.4509 19.4914 44.3667 18.9625 44.3667 18.4145C44.3667 17.636 44.521 16.8748 44.8291 16.131C45.1376 15.3869 45.5405 14.8019 46.0381 14.375C46.5354 13.9483 47.0969 13.6469 47.7226 13.4711C48.348 13.2952 49.0244 13.2073 49.7519 13.2073C50.2348 13.2073 50.7992 13.2504 51.4452 13.3371C51.491 12.6509 51.5225 11.6908 51.5398 10.4567C52.2542 10.4682 52.8378 10.474 53.291 10.474C53.8777 10.474 54.4701 10.4683 55.0683 10.4567C54.9001 12.1694 54.752 14.2598 54.6246 16.7277C54.4967 19.1959 54.4329 21.0413 54.4329 22.2635ZM51.3256 15.5859C51.0167 15.5168 50.7254 15.4822 50.4513 15.4822C49.8861 15.4822 49.4055 15.5903 49.0092 15.8066C48.6129 16.0228 48.3084 16.3601 48.0958 16.8185C47.8832 17.277 47.7769 17.7283 47.7769 18.1723C47.7769 18.5069 47.8365 18.808 47.9559 19.0764C48.0754 19.3446 48.2589 19.5563 48.5065 19.7118C48.7542 19.8676 49.0296 19.9456 49.3326 19.9456C49.6531 19.9456 49.9458 19.8562 50.2111 19.6774C50.4762 19.4988 50.6918 19.2362 50.858 18.8901C51.024 18.5442 51.1376 18.1335 51.1987 17.6576C51.2598 17.1818 51.3021 16.4914 51.3256 15.5859Z" fill="currentColor"/>
<path d="M56.2065 22.2651L56.4764 18.4248L56.5636 16.2189C56.5692 15.8211 56.5723 15.4145 56.5723 14.9992C56.5723 14.5784 56.5665 14.0564 56.5549 13.4338C57.2585 13.4454 57.8167 13.451 58.2298 13.451C58.7125 13.451 59.2678 13.4455 59.8956 13.4338L59.8595 14.4112C60.0864 14.1575 60.2724 13.9689 60.4181 13.8447C60.5633 13.7208 60.7295 13.6083 60.9155 13.5074C61.1014 13.4066 61.2966 13.3315 61.5 13.2826C61.7034 13.2337 61.916 13.2091 62.1371 13.2091C62.3464 13.2091 62.5792 13.2379 62.8349 13.2956C62.8408 13.9242 62.8555 14.4433 62.8788 14.8525L62.9397 16.1846C62.6202 16.0924 62.321 16.0462 62.0422 16.0462C61.6936 16.0462 61.3927 16.0967 61.14 16.1976C60.8873 16.2985 60.6639 16.4515 60.4689 16.656C60.2745 16.8607 60.1191 17.116 60.0028 17.4216C59.8866 17.7271 59.8052 18.2117 59.7586 18.8748C59.7125 19.5378 59.6892 20.2963 59.6892 21.1497C59.6892 21.4494 59.7007 21.8214 59.724 22.2654C59.1596 22.254 58.5922 22.2482 58.022 22.2482C57.4576 22.2479 56.8526 22.2537 56.2065 22.2651Z" fill="currentColor"/>
</g>
<defs>
<clipPath id="clip0_510_10759">
<rect width="118" height="30" fill="currentColor"/>
</clipPath>
</defs>
</svg>
