<svg width="21" height="21" viewBox="0 0 21 21" fill="none" xmlns="http://www.w3.org/2000/svg">
<path d="M8.8982 12.1018C9.36397 12.5449 9.36397 13.2719 8.8982 13.715C8.45514 14.158 7.72808 14.158 7.28503 13.715C6.221 12.6493 5.62336 11.205 5.62336 9.6991C5.62336 8.1932 6.221 6.74885 7.28503 5.68322L11.3066 1.66167C12.3722 0.597633 13.8166 0 15.3225 0C16.8284 0 18.2727 0.597633 19.3383 1.66167C20.4024 2.7273 21 4.17164 21 5.67754C21 7.18344 20.4024 8.62779 19.3383 9.69342L17.6456 11.3861C17.657 10.4546 17.5093 9.52301 17.1912 8.63691L17.7252 8.09161C18.0436 7.77658 18.2965 7.4015 18.469 6.9881C18.6416 6.5747 18.7304 6.13119 18.7304 5.68322C18.7304 5.23526 18.6416 4.79174 18.469 4.37834C18.2965 3.96494 18.0436 3.58987 17.7252 3.27483C17.4101 2.95636 17.0351 2.70353 16.6217 2.53098C16.2083 2.35843 15.7647 2.26958 15.3168 2.26958C14.8688 2.26958 14.4253 2.35843 14.0119 2.53098C13.5985 2.70353 13.2234 2.95636 12.9084 3.27483L8.8982 7.28503C8.57972 7.60006 8.32689 7.97514 8.15434 8.38854C7.98179 8.80194 7.89295 9.24545 7.89295 9.69342C7.89295 10.1414 7.98179 10.5849 8.15434 10.9983C8.32689 11.4117 8.57972 11.7868 8.8982 12.1018ZM12.1018 7.28503C12.5449 6.84198 13.2719 6.84198 13.715 7.28503C14.779 8.35066 15.3766 9.795 15.3766 11.3009C15.3766 12.8068 14.779 14.2511 13.715 15.3168L9.69342 19.3383C8.62779 20.4024 7.18344 21 5.67754 21C4.17164 21 2.7273 20.4024 1.66167 19.3383C0.597633 18.2727 0 16.8284 0 15.3225C0 13.8166 0.597633 12.3722 1.66167 11.3066L3.35435 9.6139C3.34299 10.5454 3.49068 11.477 3.80877 12.3745L3.27483 12.9084C2.95636 13.2234 2.70353 13.5985 2.53098 14.0119C2.35843 14.4253 2.26958 14.8688 2.26958 15.3168C2.26958 15.7647 2.35843 16.2083 2.53098 16.6217C2.70353 17.0351 2.95636 17.4101 3.27483 17.7252C3.58987 18.0436 3.96494 18.2965 4.37834 18.469C4.79174 18.6416 5.23526 18.7304 5.68322 18.7304C6.13119 18.7304 6.5747 18.6416 6.9881 18.469C7.4015 18.2965 7.77658 18.0436 8.09161 17.7252L12.1018 13.715C12.4203 13.3999 12.6731 13.0249 12.8457 12.6115C13.0182 12.1981 13.1071 11.7545 13.1071 11.3066C13.1071 10.8586 13.0182 10.4151 12.8457 10.0017C12.6731 9.5883 12.4203 9.21323 12.1018 8.8982C11.9915 8.79481 11.9035 8.66988 11.8434 8.53115C11.7833 8.39241 11.7523 8.24282 11.7523 8.09161C11.7523 7.94041 11.7833 7.79081 11.8434 7.65208C11.9035 7.51334 11.9915 7.38842 12.1018 7.28503Z" fill="#3A6D90"/>
</svg>
