<svg width="30" height="37" viewBox="0 0 30 37" fill="none" xmlns="http://www.w3.org/2000/svg">
<path d="M29.259 14.6295C29.259 22.7086 14.6295 36.5737 14.6295 36.5737C14.6295 36.5737 0 22.7086 0 14.6295C0 10.7495 1.54132 7.02844 4.28488 4.28488C7.02844 1.54132 10.7495 0 14.6295 0C18.5095 0 22.2305 1.54132 24.9741 4.28488C27.7176 7.02844 29.259 10.7495 29.259 14.6295Z" fill="currentColor"/>
<path d="M9.14648 19.0519C10.3661 20.4257 12.0675 21.2903 13.9069 21.4707C15.7462 21.6512 17.5861 21.1341 19.0548 20.024C20.5235 18.9139 21.5113 17.2935 21.8185 15.4905C22.1258 13.6876 21.7296 11.8364 20.71 10.3114M19.9494 9.35881C19.0105 8.36734 17.8077 7.65825 16.4794 7.31314" stroke="white" stroke-width="2"/>
</svg>
