<svg viewBox="0 0 11 10" fill="none" xmlns="http://www.w3.org/2000/svg">
<path d="M5.12707 10C2.29998 10 0 7.75704 0 4.99991C0 2.24302 2.29998 0 5.12707 0C7.95417 0 10.254 2.24302 10.254 4.99991C10.254 7.75704 7.95417 10 5.12707 10ZM5.12707 1.24146C3.00186 1.24146 1.27302 2.92756 1.27302 4.99986C1.27302 7.0725 3.00186 8.75848 5.12707 8.75848C7.25217 8.75848 8.98101 7.0725 8.98101 4.99986C8.98101 2.92756 7.25217 1.24146 5.12707 1.24146Z" fill="currentColor"/>
<path d="M6.89811 3.41272L7.53326 2.87238C7.17431 2.48747 6.7198 2.18866 6.20674 2.01196L5.73193 2.72907C6.18638 2.84403 6.58918 3.08568 6.89811 3.41272Z" fill="currentColor"/>
<path d="M7.86397 3.2915L7.21884 3.84011C7.41967 4.18261 7.53534 4.57824 7.53534 5.0001C7.53534 6.29468 6.45529 7.34795 5.12792 7.34795C4.37097 7.34795 3.69545 7.00545 3.25374 6.47131L2.7793 7.18824C3.37151 7.79254 4.20503 8.1703 5.12792 8.1703C6.92036 8.1703 8.37871 6.74822 8.37871 5.0001C8.37865 4.37108 8.18923 3.78488 7.86397 3.2915Z" fill="currentColor"/>
</svg>
