<svg viewBox="0 0 32 32" fill="none" xmlns="http://www.w3.org/2000/svg">
<path d="M14.3479 22.8263C14.3458 21.2081 14.809 19.6234 15.6823 18.2611H5.54756C4.76921 18.2611 4.02274 18.5703 3.47237 19.1207C2.92199 19.6711 2.61279 20.4175 2.61279 21.1959V22.3946C2.61279 23.1407 2.84757 23.8685 3.27931 24.4763C5.2906 27.2989 8.58276 28.6958 13.0436 28.6958C14.2601 28.6958 15.3871 28.5915 16.4245 28.3828C15.0843 26.843 14.3467 24.8702 14.3479 22.8289M19.5653 9.13987C19.5653 7.4102 18.8782 5.75138 17.6551 4.52833C16.4321 3.30527 14.7733 2.61816 13.0436 2.61816C11.3139 2.61816 9.65512 3.30527 8.43206 4.52833C7.20901 5.75138 6.5219 7.4102 6.5219 9.13987C6.5219 10.8695 7.20901 12.5283 8.43206 13.7514C9.65512 14.9745 11.3139 15.6616 13.0436 15.6616C14.7733 15.6616 16.4321 14.9745 17.6551 13.7514C18.8782 12.5283 19.5653 10.8695 19.5653 9.13987ZM30 22.8263C30 20.9237 29.2442 19.099 27.8988 17.7536C26.5535 16.4083 24.7288 15.6524 22.8262 15.6524C20.9235 15.6524 19.0988 16.4083 17.7535 17.7536C16.4081 19.099 15.6523 20.9237 15.6523 22.8263C15.6523 24.7289 16.4081 26.5536 17.7535 27.899C19.0988 29.2444 20.9235 30.0002 22.8262 30.0002C24.7288 30.0002 26.5535 29.2444 27.8988 27.899C29.2442 26.5536 30 24.7289 30 22.8263Z" fill="currentColor"/>
<path d="M18.9468 25.6184C19.7333 26.4956 20.8306 27.0475 22.0168 27.1628C23.2031 27.278 24.3897 26.9478 25.3369 26.2391C26.284 25.5303 26.9211 24.4957 27.1193 23.3446C27.3174 22.1934 27.0619 21.0115 26.4043 20.0378M25.9138 19.4296C25.3083 18.7966 24.5326 18.3439 23.6759 18.1235" stroke="#ECF3F8" stroke-width="1.06719"/>
</svg>
