<svg viewBox="0 0 15 8" fill="none" xmlns="http://www.w3.org/2000/svg">
<path d="M4.49463 5.29561C4.47842 5.24519 4.42972 5.21356 4.34866 5.20074L2.99101 5.00004L2.38255 3.74895C2.34466 3.67379 2.3005 3.63623 2.25003 3.63623C2.19775 3.63623 2.15357 3.67379 2.11753 3.74895L1.509 5.00004L0.151346 5.20074C0.0702223 5.21357 0.021533 5.24519 0.00532535 5.29561C-0.0108634 5.34604 0.00985326 5.40057 0.0675321 5.45923L1.05196 6.4326L0.819384 7.80739C0.810385 7.86793 0.815775 7.915 0.835629 7.94899C0.855446 7.98293 0.886118 7.99987 0.92758 7.99987C0.958243 7.99987 0.994296 7.98889 1.03576 7.9668L2.25009 7.31786L3.46439 7.9668C3.50585 7.98882 3.54193 7.99987 3.57259 7.99987C3.61409 7.99987 3.64479 7.98293 3.66456 7.94899C3.68434 7.915 3.68975 7.86793 3.68074 7.80739L3.44818 6.4326L4.42983 5.45923C4.48935 5.40057 4.51097 5.34604 4.49463 5.29561Z" fill="currentColor"/>
<path d="M14.9946 5.29561C14.9784 5.24519 14.9297 5.21356 14.8487 5.20074L13.491 5.00004L12.8825 3.74895C12.8447 3.67379 12.8005 3.63623 12.75 3.63623C12.6978 3.63623 12.6536 3.67379 12.6175 3.74895L12.009 5.00004L10.6513 5.20074C10.5702 5.21357 10.5215 5.24519 10.5053 5.29561C10.4891 5.34604 10.5099 5.40057 10.5675 5.45923L11.552 6.4326L11.3194 7.80739C11.3104 7.86793 11.3158 7.915 11.3356 7.94899C11.3554 7.98293 11.3861 7.99987 11.4276 7.99987C11.4582 7.99987 11.4943 7.98889 11.5358 7.9668L12.7501 7.31786L13.9644 7.9668C14.0058 7.98882 14.0419 7.99987 14.0726 7.99987C14.1141 7.99987 14.1448 7.98293 14.1646 7.94899C14.1843 7.915 14.1897 7.86793 14.1807 7.80739L13.9482 6.4326L14.9298 5.45923C14.9894 5.40057 15.011 5.34604 14.9946 5.29561Z" fill="currentColor"/>
<path d="M9.74463 1.65938C9.72842 1.60896 9.67972 1.57733 9.59866 1.56451L8.24101 1.36381L7.63255 0.112719C7.59466 0.0375603 7.5505 0 7.50003 0C7.44775 0 7.40357 0.0375603 7.36753 0.112719L6.759 1.36381L5.40135 1.56451C5.32022 1.57734 5.27153 1.60896 5.25533 1.65938C5.23914 1.70981 5.25985 1.76434 5.31753 1.823L6.30196 2.79637L6.06938 4.17116C6.06038 4.2317 6.06577 4.27877 6.08563 4.31276C6.10545 4.3467 6.13612 4.36364 6.17758 4.36364C6.20824 4.36364 6.2443 4.35266 6.28576 4.33057L7.50009 3.68163L8.71439 4.33057C8.75585 4.35259 8.79193 4.36364 8.82259 4.36364C8.86409 4.36364 8.89479 4.3467 8.91456 4.31276C8.93434 4.27877 8.93975 4.2317 8.93074 4.17116L8.69818 2.79637L9.67983 1.823C9.73935 1.76434 9.76097 1.70981 9.74463 1.65938Z" fill="currentColor"/>
</svg>
