<svg width="26" height="22" viewBox="0 0 26 22" fill="none" xmlns="http://www.w3.org/2000/svg">
<path fill-rule="evenodd" clip-rule="evenodd" d="M19.916 21.7571C20.2648 22.0079 20.7144 22.0706 21.1152 21.9166C21.516 21.7615 21.8107 21.4139 21.8995 20.9926C22.8409 16.5002 25.1245 5.12947 25.9814 1.04296C26.0464 0.734964 25.9381 0.414864 25.6998 0.209163C25.4614 0.00346312 25.131 -0.0559371 24.8364 0.0551631C20.2941 1.76236 6.30529 7.09187 0.587584 9.24017C0.224676 9.37657 -0.0114854 9.73077 0.000430998 10.1191C0.0134307 10.5085 0.271258 10.8462 0.642833 10.9595C3.20702 11.7383 6.57286 12.8218 6.57286 12.8218C6.57286 12.8218 8.14583 17.6453 8.96589 20.0983C9.06881 20.4063 9.30605 20.6483 9.61913 20.7319C9.93112 20.8144 10.2648 20.7275 10.4977 20.5042C11.815 19.2414 13.8516 17.2889 13.8516 17.2889C13.8516 17.2889 17.7212 20.1698 19.916 21.7571ZM7.98875 12.2124L9.80762 18.3042L10.2117 14.4465C10.2117 14.4465 17.2391 8.01037 21.2452 4.34187C21.3622 4.23407 21.3784 4.05367 21.2809 3.92717C21.1845 3.80067 21.0069 3.77097 20.8736 3.85677C16.2306 6.86747 7.98875 12.2124 7.98875 12.2124Z" fill="#3A6D90"/>
</svg>
