<svg width="36" height="38" viewBox="0 0 36 38" fill="none" xmlns="http://www.w3.org/2000/svg">
<path d="M30.577 5.565C27.0777 1.976 22.426 0 17.4778 0C16.8782 0 16.3926 0.498007 16.3926 1.11301V9.72299H23.2664C23.866 9.72299 24.3525 10.221 24.3525 10.836C24.3525 11.451 23.866 11.949 23.2664 11.949H22.9047V12.079C22.9056 13.285 22.6278 14.474 22.0935 15.548C21.5592 16.623 20.783 17.551 19.8305 18.258C20.783 18.964 21.5592 19.893 22.0935 20.967C22.6278 22.041 22.9056 23.23 22.9047 24.436V24.566H23.2664C23.866 24.566 24.3525 25.065 24.3525 25.68C24.3525 26.295 23.866 26.793 23.2664 26.793H11.6882C11.0886 26.793 10.603 26.295 10.603 25.68C10.603 25.065 11.0886 24.566 11.6882 24.566H12.0499V24.436C12.0489 23.429 12.243 22.432 12.6203 21.503C12.9976 20.573 13.5514 19.729 14.2486 19.021L0.714516 24.073C0.150962 24.283 -0.139628 24.922 0.0660982 25.5C1.35408 29.128 3.66098 32.234 6.74005 34.484C9.88737 36.784 13.6002 38 17.4778 38C22.426 38 27.0777 36.024 30.577 32.435C34.0792 28.846 36 24.075 36 19C36 13.925 34.0792 9.154 30.577 5.565Z" fill="#3A6D90"/>
<path d="M13.6898 16.8576C12.6524 15.5356 12.0499 13.8626 12.0499 12.0776V11.9476H11.6882C11.0885 11.9476 10.603 11.4486 10.603 10.8336C10.603 10.2196 11.0885 9.72064 11.6882 9.72064H14.2212V3.39062C11.3079 4.02362 8.6315 5.50463 6.47674 7.71463C3.53807 10.7286 1.91954 14.7356 1.91954 18.9976C1.91954 19.7326 1.97126 20.4656 2.07266 21.1946L13.6898 16.8576ZM20.7342 11.9476H14.2212V12.0776C14.2202 13.1466 14.5293 14.1926 15.1094 15.0816C15.6886 15.9696 16.5135 16.6616 17.4778 17.0686C18.442 16.6616 19.2659 15.9696 19.8461 15.0816C20.4262 14.1926 20.7352 13.1466 20.7342 12.0776V11.9476ZM14.2212 24.4346V24.5646H20.7342V24.4346C20.7352 23.3646 20.4262 22.3196 19.8461 21.4306C19.2659 20.5416 18.442 19.8496 17.4778 19.4426C16.5135 19.8496 15.6886 20.5416 15.1094 21.4306C14.5293 22.3196 14.2202 23.3646 14.2212 24.4346Z" fill="#3A6D90"/>
</svg>
