<svg width="31" height="20" viewBox="0 0 31 20" fill="none" xmlns="http://www.w3.org/2000/svg">
<g clip-path="url(#clip0_0_4057)">
<path d="M30.9483 4.12723C31.1918 4.7939 30.3978 6.32515 28.5661 8.72098C28.3121 9.05432 27.968 9.49702 27.5339 10.0491C27.1104 10.5804 26.8192 10.9554 26.6604 11.1741C26.5016 11.3929 26.3401 11.6507 26.176 11.9475C26.0119 12.2444 25.9484 12.4632 25.9855 12.6038C26.0225 12.7444 26.0913 12.9241 26.1919 13.1429C26.2925 13.3616 26.4645 13.5856 26.7081 13.8147C26.9516 14.0439 27.2533 14.3199 27.6133 14.6429C27.6556 14.6637 27.6821 14.6845 27.6927 14.7054C29.1855 16.0699 30.1966 17.221 30.726 18.1585C30.7577 18.2106 30.7922 18.2757 30.8292 18.3538C30.8663 18.4319 30.9033 18.5699 30.9404 18.7679C30.9774 18.9658 30.9748 19.1429 30.9324 19.2991C30.8901 19.4554 30.7577 19.5986 30.5354 19.7288C30.3131 19.859 30.0007 19.9241 29.5984 19.9241L25.5329 19.9866C25.2788 20.0387 24.9823 20.0126 24.6435 19.9085C24.3047 19.8043 24.0294 19.6897 23.8177 19.5647L23.5001 19.3772C23.1824 19.1585 22.8119 18.8252 22.3884 18.3772C21.9649 17.9293 21.6023 17.5257 21.3005 17.1663C20.9988 16.8069 20.6759 16.5048 20.3318 16.26C19.9877 16.0153 19.6886 15.9345 19.4345 16.0179C19.4027 16.0283 19.3604 16.0465 19.3074 16.0725C19.2545 16.0986 19.1645 16.1741 19.0375 16.2991C18.9104 16.4241 18.7966 16.5778 18.696 16.76C18.5954 16.9423 18.5054 17.2132 18.426 17.5725C18.3466 17.9319 18.3122 18.3356 18.3228 18.7835C18.3228 18.9397 18.3043 19.083 18.2672 19.2132C18.2302 19.3434 18.1905 19.4397 18.1481 19.5022L18.0846 19.5804C17.894 19.7783 17.6135 19.8929 17.2429 19.9241H15.4166C14.6649 19.9658 13.892 19.8798 13.0979 19.6663C12.3039 19.4528 11.6077 19.1767 11.0095 18.8382C10.4114 18.4996 9.8661 18.1559 9.37378 17.8069C8.88147 17.458 8.50826 17.1585 8.25416 16.9085L7.85713 16.5335C7.75126 16.4293 7.60568 16.2731 7.4204 16.0647C7.23512 15.8564 6.85662 15.3824 6.2849 14.6429C5.71318 13.9033 5.15204 13.1168 4.6015 12.2835C4.05095 11.4502 3.40247 10.3512 2.65606 8.98661C1.90964 7.62202 1.21881 6.20536 0.583568 4.73661C0.520044 4.56994 0.488281 4.42932 0.488281 4.31473C0.488281 4.20015 0.504162 4.11682 0.535925 4.06473L0.599449 3.97098C0.758261 3.77307 1.06 3.67411 1.50467 3.67411L5.85611 3.64286C5.98316 3.66369 6.10491 3.69754 6.22138 3.74442C6.33784 3.79129 6.42254 3.83557 6.47547 3.87723L6.55488 3.92411C6.72428 4.03869 6.85133 4.20536 6.93603 4.42411C7.14778 4.94494 7.39129 5.484 7.66656 6.0413C7.94183 6.59859 8.15888 7.02307 8.31769 7.31473L8.57178 7.76786C8.87882 8.39286 9.17527 8.93452 9.46113 9.39286C9.74699 9.85119 10.0037 10.208 10.2314 10.4632C10.459 10.7184 10.6787 10.9189 10.8904 11.0647C11.1022 11.2106 11.2822 11.2835 11.4304 11.2835C11.5786 11.2835 11.7215 11.2574 11.8592 11.2054C11.8804 11.1949 11.9068 11.1689 11.9386 11.1272C11.9704 11.0856 12.0339 10.971 12.1292 10.7835C12.2244 10.596 12.2959 10.3512 12.3436 10.0491C12.3912 9.74702 12.4415 9.32515 12.4944 8.78348C12.5474 8.24182 12.5474 7.59077 12.4944 6.83036C12.4733 6.41369 12.4256 6.03348 12.3515 5.68973C12.2774 5.34598 12.2033 5.1064 12.1292 4.97098L12.0339 4.78348C11.7692 4.42932 11.3192 4.20536 10.684 4.11161C10.5463 4.09077 10.5728 3.96577 10.7634 3.73661C10.9328 3.53869 11.1339 3.38244 11.3669 3.26786C11.928 2.99702 13.1932 2.87202 15.1625 2.89286C16.0306 2.90327 16.7453 2.97098 17.3064 3.09598C17.5182 3.14807 17.6955 3.21838 17.8384 3.30692C17.9814 3.39546 18.0899 3.52046 18.164 3.68192C18.2381 3.84338 18.2937 4.01004 18.3307 4.18192C18.3678 4.35379 18.3863 4.59077 18.3863 4.89286C18.3863 5.19494 18.381 5.4814 18.3705 5.75223C18.3599 6.02307 18.3466 6.39025 18.3307 6.8538C18.3149 7.31734 18.3069 7.74702 18.3069 8.14286C18.3069 8.25744 18.3016 8.47619 18.291 8.79911C18.2805 9.12202 18.2778 9.37202 18.2831 9.54911C18.2884 9.72619 18.3069 9.93713 18.3387 10.1819C18.3705 10.4267 18.4313 10.6298 18.5213 10.7913C18.6113 10.9528 18.7304 11.0804 18.8787 11.1741C18.9633 11.1949 19.0533 11.2158 19.1486 11.2366C19.2439 11.2574 19.3816 11.2002 19.5615 11.0647C19.7415 10.9293 19.9427 10.7496 20.165 10.5257C20.3874 10.3017 20.6626 9.95275 20.9908 9.4788C21.3191 9.00484 21.679 8.44494 22.0708 7.79911C22.706 6.71577 23.2724 5.5439 23.77 4.28348C23.8124 4.17932 23.8653 4.08817 23.9289 4.01004C23.9924 3.93192 24.0506 3.87723 24.1035 3.84598L24.1671 3.79911L24.2465 3.76004L24.4529 3.71317L24.7706 3.70536L29.3443 3.67411C29.7572 3.62202 30.096 3.63504 30.3607 3.71317C30.6254 3.79129 30.7895 3.87723 30.853 3.97098L30.9483 4.12723Z" fill="#3A6D90"/>
</g>
<defs>
<clipPath id="clip0_0_4057">
<rect width="31" height="20" fill="white"/>
</clipPath>
</defs>
</svg>
